<?xml version="1.0" encoding="utf-8"?>
<!-- Generator: Adobe Illustrator 24.2.1, SVG Export Plug-In . SVG Version: 6.00 Build 0)  -->
<svg version="1.1" id="Layer_1" xmlns="http://www.w3.org/2000/svg" xmlns:xlink="http://www.w3.org/1999/xlink" x="0px" y="0px"
	 width="256px" height="256px" viewBox="0 0 256 256" style="enable-background:new 0 0 256 256;" xml:space="preserve">
<style type="text/css">
	.st0{fill:#28ABE3;}
	.st1{fill:#FFFFFF;}
</style>
<g>
	<circle class="st0" cx="128" cy="128" r="126"/>
</g>
<g id="Layer_2_1_">
	<g id="Layer_1-2">
		<polygon class="st1" points="122.9,144.7 124.1,150.6 126.3,147.7 128.5,158.7 130.7,147.7 132.9,150.6 134.1,144.7 		"/>
		<path class="st1" d="M134.4,135.4v-16.6c0-3.2-5.8-11.4-5.8-11.4s-5.9,8.2-5.9,11.4v16.6c-3.8,1.2-7.1,3.7-9.5,6.9h30.7
			C141.5,139,138.2,136.6,134.4,135.4z"/>
		<path class="st1" d="M199.2,152.2c0-4.8-3.9-8.7-8.7-8.7c-4.8,0-8.7,3.9-8.7,8.7c0,4.8,3.9,8.7,8.7,8.7l0,0
			C195.3,160.9,199.1,157,199.2,152.2z M185.4,152.2c0-2.8,2.3-5.1,5.1-5.1c2.8,0,5.1,2.3,5.1,5.1c0,2.8-2.3,5.1-5.1,5.1
			c0,0,0,0,0,0C187.7,157.3,185.4,155,185.4,152.2z"/>
		<path class="st1" d="M128.5,34.7C77,34.7,35.2,76.5,35.2,128c0,35.6,21.9,64.2,50.9,66.6c17.6,1.5,34.7-4.8,45.9-10.4
			c6.7-2.8,13-6.5,18.5-11.2l1.2-1l0,0c0.9-0.8,1.7-1.5,2.6-2.3c10.5-10,23.1-27.9,23.1-56.8v-3.2l-48.4-33.2l-48.4,33.2v3.2
			c0,28.9,12.5,46.8,23.1,56.8c1.2,1.2,2.5,2.3,3.9,3.4c4.4-1.6,8.8-3.2,13.1-5.1c-11-7.1-26.9-22.6-28-51.9l36.3-24.9l36.3,24.9
			c-0.9,23.7-11.5,38.3-20.9,46.5l-1.2,0.9c-0.3,0.2-28.3,21.5-56.2,19.2c-17.4-1.4-31.5-15.6-37.2-35.3c4.5-3.2,5.5-9.4,2.3-13.8
			c-1.2-1.7-3-3-5-3.7c0-0.6,0-1.2,0-1.8c0-11.4,2.4-22.7,7.1-33.1c2.8,1.2,5.9,1.8,9,1.8c13,0,23.6-10.6,23.6-23.7
			c0-3.8-1-7.6-2.8-11c-0.3-0.5-0.6-1-0.9-1.4c37.2-25,87.7-15.1,112.7,22.1c0.3,0.5,0.6,0.9,0.9,1.4c-7.1,6-8,16.7-2,23.8
			c3.2,3.8,7.9,6,12.9,6c0.3,0,0.5,0,0.8,0c0.8,4.7,1.3,9.4,1.3,14.2c0,42.2-33.5,75.5-81.5,81.3c-38.4,4.7-63-11.2-63-11.2
			c14.4,15.8,34.4,23.2,63.2,23.2c51.6-0.6,92.9-42.8,92.3-94.3C220.3,76.2,179.3,35.2,128.5,34.7z M50.3,140.6
			c-0.2,1-0.7,2-1.4,2.8c-0.7-3.1-1.2-6.3-1.4-9.5C49.7,135.3,50.8,138,50.3,140.6z M80.9,63.6c5.2,9.7,1.5,21.9-8.3,27
			c-5.2,2.8-11.3,3.1-16.8,0.9c5.8-11.4,14.1-21.4,24.4-29C80.4,62.9,80.7,63.3,80.9,63.6L80.9,63.6z M207.8,110.2
			c-7.4,0-13.3-6-13.3-13.3c0-3.7,1.6-7.3,4.3-9.8C202.9,94.3,206,102.1,207.8,110.2L207.8,110.2z"/>
	</g>
</g>
<g>
</g>
<g>
</g>
<g>
</g>
<g>
</g>
<g>
</g>
<g>
</g>
<g>
</g>
<g>
</g>
<g>
</g>
<g>
</g>
<g>
</g>
<g>
</g>
<g>
</g>
<g>
</g>
<g>
</g>
</svg>
